<?xml version="1.0" encoding="utf-8"?>
<!-- Generator: Adobe Illustrator 26.2.1, SVG Export Plug-In . SVG Version: 6.00 Build 0)  -->
<svg version="1.1" id="Livello_1" xmlns="http://www.w3.org/2000/svg" xmlns:xlink="http://www.w3.org/1999/xlink" x="0px" y="0px"
	 viewBox="0 0 1000 1000" style="enable-background:new 0 0 1000 1000;" xml:space="preserve">
<g>
	<path d="M893.33,113c0,87.12,0,174.24,0,262.7c-30.79,0-59.08,0-90.02,0c0-56.16,0-112.3,0-170.02c-86.64,0-170.67,0-257.03,0
		c0,55.4,0,111.49,0,169.46c-30.35,0-58.48,0-90.11,0c0-55.86,0-112.47,0-170.04c-87.67,0-171.89,0-258.39,0
		c0,56.28,0,112.43,0,170.25c-30.37,0-58.53,0-88.28,0c-0.73-3.54-2.29-7.6-2.3-11.66c-0.14-79.97-0.13-159.94-0.03-239.92
		c0-3.59,1.14-7.19,1.74-10.78C370.39,113,631.86,113,893.33,113z"/>
	<path d="M891.33,899.2c-28.64,0-56.85,0-86.88,0c0-29.1,0-57.9,0-88.1c28.86,0,57.03,0,86.88,0
		C891.33,840.14,891.33,868.91,891.33,899.2z"/>
</g>
</svg>
