<?xml version="1.0" encoding="utf-8"?>
<!-- Generator: Adobe Illustrator 27.3.0, SVG Export Plug-In . SVG Version: 6.00 Build 0)  -->
<svg version="1.1" id="Livello_1" xmlns="http://www.w3.org/2000/svg" xmlns:xlink="http://www.w3.org/1999/xlink" x="0px" y="0px"
	 viewBox="0 0 1080 1080" style="enable-background:new 0 0 1080 1080;" xml:space="preserve">
<path d="M617.8,540l342.1-342.1c21.5-21.5,21.5-56.3,0-77.8c-21.5-21.5-56.3-21.5-77.8,0L540,462.2L197.9,120.1
	c-21.5-21.5-56.3-21.5-77.8,0c-21.5,21.5-21.5,56.3,0,77.8L462.2,540L120.1,882.1c-21.5,21.5-21.5,56.3,0,77.8
	c10.7,10.7,24.8,16.1,38.9,16.1s28.2-5.4,38.9-16.1L540,617.8l342.1,342.1c10.7,10.7,24.8,16.1,38.9,16.1s28.2-5.4,38.9-16.1
	c21.5-21.5,21.5-56.3,0-77.8L617.8,540z"/>
</svg>
